{
  "accessors": [
    {
      "bufferView": 2,
      "componentType": 5126,
      "count": 41494,
      "max": [
        48.826629638671875,
        11.383807182312012,
        34.29124450683594
      ],
      "min": [
        -34.34075164794922,
        -49.24269485473633,
        -34.299652099609375
      ],
      "type": "VEC3"
    },
    {
      "bufferView": 2,
      "byteOffset": 497928,
      "componentType": 5126,
      "count": 41494,
      "max": [
        0.9999389052391052,
        0.9998778104782104,
        1.0
      ],
      "min": [
        -0.9999722242355347,
        -0.9996980428695679,
        -1.0
      ],
      "type": "VEC3"
    },
    {
      "bufferView": 3,
      "componentType": 5126,
      "count": 41494,
      "max": [
        1.0,
        1.0,
        1.0,
        1.0
      ],
      "min": [
        0.9921568632125854,
        0.9921568632125854,
        0.9921568632125854,
        0.9921568632125854
      ],
      "type": "VEC4"
    },
    {
      "bufferView": 1,
      "componentType": 5126,
      "count": 41494,
      "max": [
        0.9946082830429077,
        0.9944234490394592
      ],
      "min": [
        0.005391627084463835,
        0.0053915479220449924
      ],
      "type": "VEC2"
    },
    {
      "bufferView": 0,
      "componentType": 5125,
      "count": 109950,
      "type": "SCALAR"
    },
    {
      "bufferView": 2,
      "byteOffset": 995856,
      "componentType": 5126,
      "count": 1011,
      "max": [
        -1.231918454170227,
        6.116130352020264,
        6.212424278259277
      ],
      "min": [
        -12.103742599487305,
        -13.212151527404785,
        -6.200631618499756
      ],
      "type": "VEC3"
    },
    {
      "bufferView": 2,
      "byteOffset": 1007988,
      "componentType": 5126,
      "count": 1011,
      "max": [
        0.9895303249359131,
        0.9984735250473022,
        0.9993757605552673
      ],
      "min": [
        -0.9833497405052185,
        -0.9854907393455505,
        -0.9989532828330994
      ],
      "type": "VEC3"
    },
    {
      "bufferView": 3,
      "byteOffset": 663904,
      "componentType": 5126,
      "count": 1011,
      "max": [
        1.0,
        1.0,
        1.0,
        1.0
      ],
      "min": [
        1.0,
        1.0,
        1.0,
        1.0
      ],
      "type": "VEC4"
    },
    {
      "bufferView": 1,
      "byteOffset": 331952,
      "componentType": 5126,
      "count": 1011,
      "max": [
        0.9976208806037903,
        0.9731486439704895
      ],
      "min": [
        0.0023791776038706303,
        0.002379192505031824
      ],
      "type": "VEC2"
    },
    {
      "bufferView": 0,
      "byteOffset": 439800,
      "componentType": 5125,
      "count": 3147,
      "type": "SCALAR"
    }
  ],
  "asset": {
    "extras": {
      "author": "karmy2k (https://sketchfab.com/karmy2k)",
      "license": "CC-BY-4.0 (http://creativecommons.org/licenses/by/4.0/)",
      "source": "https://sketchfab.com/3d-models/mh-6-little-bird-b0df06e4a7aa4a9980ddf3e8ec771ee2",
      "title": "MH-6 Little Bird"
    },
    "generator": "Sketchfab-16.25.0",
    "version": "2.0"
  },
  "bufferViews": [
    {
      "buffer": 0,
      "byteLength": 452388,
      "name": "floatBufferViews",
      "target": 34963
    },
    {
      "buffer": 0,
      "byteLength": 340040,
      "byteOffset": 452388,
      "byteStride": 8,
      "name": "floatBufferViews",
      "target": 34962
    },
    {
      "buffer": 0,
      "byteLength": 1020120,
      "byteOffset": 792428,
      "byteStride": 12,
      "name": "floatBufferViews",
      "target": 34962
    },
    {
      "buffer": 0,
      "byteLength": 680080,
      "byteOffset": 1812548,
      "byteStride": 16,
      "name": "floatBufferViews",
      "target": 34962
    }
  ],
  "buffers": [
    {
      "byteLength": 2492628,
      "uri": "scene.bin"
    }
  ],
  "extensionsUsed": [
    "KHR_materials_transmission"
  ],
  "images": [
    {
      "uri": "textures/Main_baseColor.png"
    }
  ],
  "materials": [
    {
      "doubleSided": true,
      "name": "Main",
      "pbrMetallicRoughness": {
        "baseColorTexture": {
          "index": 0
        }
      }
    },
    {
      "alphaMode": "BLEND",
      "doubleSided": true,
      "extensions": {
        "KHR_materials_transmission": {
          "transmissionFactor": 0.9344759907839719
        }
      },
      "name": "Glass",
      "pbrMetallicRoughness": {
        "baseColorFactor": [
          0.20571491265497188,
          0.20571491265497188,
          0.20571491265497188,
          0.25
        ],
        "metallicFactor": 0.0,
        "roughnessFactor": 0.0
      }
    }
  ],
  "meshes": [
    {
      "name": "MH-6 Littel Bird Main_Main_0",
      "primitives": [
        {
          "attributes": {
            "COLOR_0": 2,
            "NORMAL": 1,
            "POSITION": 0,
            "TEXCOORD_0": 3
          },
          "indices": 4,
          "material": 0,
          "mode": 4
        }
      ]
    },
    {
      "name": "MH-6 Littel Bird Main_Glass_0",
      "primitives": [
        {
          "attributes": {
            "COLOR_0": 7,
            "NORMAL": 6,
            "POSITION": 5,
            "TEXCOORD_0": 8
          },
          "indices": 9,
          "material": 1,
          "mode": 4
        }
      ]
    }
  ],
  "nodes": [
    {
      "children": [
        1
      ],
      "matrix": [
        1.0,
        0.0,
        0.0,
        0.0,
        0.0,
        2.220446049250313e-16,
        -1.0,
        0.0,
        0.0,
        1.0,
        2.220446049250313e-16,
        0.0,
        0.0,
        0.0,
        0.0,
        1.0
      ],
      "name": "Sketchfab_model"
    },
    {
      "children": [
        2
      ],
      "matrix": [
        0.009999999776482582,
        0.0,
        0.0,
        0.0,
        0.0,
        0.0,
        0.009999999776482582,
        0.0,
        0.0,
        -0.009999999776482582,
        0.0,
        0.0,
        0.0,
        0.0,
        0.0,
        1.0
      ],
      "name": "2d4e632383cd4d0bb414156143ff00a6.fbx"
    },
    {
      "children": [
        3
      ],
      "name": "RootNode"
    },
    {
      "children": [
        4,
        5
      ],
      "matrix": [
        -1.2123568642417557e-06,
        -7.441393365894047,
        -10.470436273198155,
        0.0,
        -7.360496692740203e-07,
        -10.470436273198144,
        7.4413933658941245,
        0.0,
        -12.845402717590254,
        1.3022857945232041e-06,
        5.618095700419981e-07,
        0.0,
        0.26544344425201416,
        105.46220397949219,
        239.7620849609375,
        1.0
      ],
      "name": "MH-6 Littel Bird Main"
    },
    {
      "mesh": 0,
      "name": "MH-6 Littel Bird Main_Main_0"
    },
    {
      "mesh": 1,
      "name": "MH-6 Littel Bird Main_Glass_0"
    }
  ],
  "samplers": [
    {
      "magFilter": 9729,
      "minFilter": 9987,
      "wrapS": 10497,
      "wrapT": 10497
    }
  ],
  "scene": 0,
  "scenes": [
    {
      "name": "Sketchfab_Scene",
      "nodes": [
        0
      ]
    }
  ],
  "textures": [
    {
      "sampler": 0,
      "source": 0
    }
  ]
}
